<svg xmlns="http://www.w3.org/2000/svg" xmlns:xlink="http://www.w3.org/1999/xlink" version="1.1" x="0px" y="0px" viewBox="0 0 100 100" enable-background="new 0 0 100 100" xml:space="preserve"><g><polygon points="27.443,85.07 16.28,75.779 28.452,71.979 23.792,52.504 38.249,62.241 47.215,40.094 51.49,66.189 63.691,58.382    61.732,72.275 77.377,72.275 63.811,82.874 66.155,85.07 84.443,85.07 78.772,79.697 96.852,65.596 69.421,65.596 72.301,44.963    56.447,55.086 49.976,15.483 35.132,52.088 13.252,37.393 20.496,67.467 2.535,73.077 16.993,85.07  "></polygon></g><g><polygon points="59,85.07 56.299,82.488 63.068,77.174 56.092,77.174 57.338,68.268 47.868,74.383 45.226,58.174 40.535,69.693    31.48,63.637 34.301,75.273 26.374,77.797 35.162,85.07  "></polygon></g></svg>